<svg width="660" height="616" viewBox="0 0 660 616" fill="none" xmlns="http://www.w3.org/2000/svg">
<g style="mix-blend-mode:multiply">
<circle cx="210" cy="210" r="210" fill="#F3F5FA"/>
</g>
<g style="mix-blend-mode:multiply">
<circle cx="450" cy="210" r="210" fill="#F3F5FA"/>
</g>
<g style="mix-blend-mode:multiply">
<circle cx="330" cy="406" r="210" fill="#F3F5FA"/>
</g>
<path fill-rule="evenodd" clip-rule="evenodd" d="M419.911 216.167C417.927 284.986 382.832 345.508 330 382.359C277.168 345.508 242.073 284.986 240.089 216.167C267.344 203.235 297.827 196 330 196C362.173 196 392.656 203.235 419.911 216.167Z" fill="#FFD740"/>
<path d="M275.813 473.182C275.085 473.182 274.418 473.061 273.811 472.818C273.205 472.566 272.682 472.221 272.243 471.782C271.805 471.334 271.464 470.797 271.221 470.172C270.979 469.547 270.857 468.856 270.857 468.1C270.857 467.344 270.979 466.658 271.221 466.042C271.464 465.417 271.805 464.885 272.243 464.446C272.682 463.998 273.205 463.653 273.811 463.41C274.418 463.158 275.085 463.032 275.813 463.032C276.887 463.032 277.815 463.293 278.599 463.816C279.393 464.329 279.971 465.029 280.335 465.916L278.851 466.462C278.599 465.846 278.207 465.365 277.675 465.02C277.143 464.665 276.523 464.488 275.813 464.488C275.319 464.488 274.861 464.577 274.441 464.754C274.031 464.922 273.676 465.165 273.377 465.482C273.079 465.799 272.845 466.182 272.677 466.63C272.519 467.069 272.439 467.559 272.439 468.1C272.439 468.641 272.519 469.136 272.677 469.584C272.845 470.023 273.079 470.401 273.377 470.718C273.676 471.035 274.031 471.283 274.441 471.46C274.861 471.628 275.319 471.712 275.813 471.712C276.523 471.712 277.143 471.539 277.675 471.194C278.207 470.849 278.599 470.368 278.851 469.752L280.335 470.284C279.971 471.18 279.393 471.889 278.599 472.412C277.815 472.925 276.887 473.182 275.813 473.182Z" fill="#20232A"/>
<path d="M291.087 473.182C290.545 473.182 290.041 473.107 289.575 472.958C289.117 472.799 288.716 472.571 288.371 472.272C288.035 471.973 287.769 471.6 287.573 471.152C287.386 470.704 287.293 470.181 287.293 469.584V463.214H288.889V469.388C288.889 470.181 289.094 470.774 289.505 471.166C289.915 471.549 290.443 471.74 291.087 471.74C291.721 471.74 292.244 471.549 292.655 471.166C293.075 470.774 293.285 470.181 293.285 469.388V463.214H294.867V469.584C294.867 470.181 294.769 470.704 294.573 471.152C294.386 471.6 294.125 471.973 293.789 472.272C293.453 472.571 293.051 472.799 292.585 472.958C292.127 473.107 291.628 473.182 291.087 473.182Z" fill="#20232A"/>
<path d="M305.687 473.182C305.174 473.182 304.689 473.121 304.231 473C303.783 472.879 303.387 472.701 303.041 472.468C302.696 472.225 302.407 471.931 302.173 471.586C301.949 471.241 301.795 470.844 301.711 470.396L303.279 470.06C303.438 470.676 303.723 471.133 304.133 471.432C304.553 471.721 305.076 471.866 305.701 471.866C306.317 471.866 306.789 471.735 307.115 471.474C307.451 471.213 307.619 470.844 307.619 470.368C307.619 470.097 307.554 469.878 307.423 469.71C307.302 469.533 307.129 469.383 306.905 469.262C306.691 469.141 306.439 469.038 306.149 468.954C305.869 468.87 305.575 468.786 305.267 468.702C304.894 468.599 304.516 468.487 304.133 468.366C303.751 468.235 303.401 468.067 303.083 467.862C302.775 467.647 302.523 467.381 302.327 467.064C302.131 466.747 302.033 466.345 302.033 465.86C302.033 465.431 302.113 465.043 302.271 464.698C302.439 464.353 302.673 464.059 302.971 463.816C303.27 463.564 303.625 463.373 304.035 463.242C304.455 463.102 304.917 463.032 305.421 463.032C305.86 463.032 306.28 463.079 306.681 463.172C307.092 463.265 307.461 463.415 307.787 463.62C308.123 463.825 308.408 464.091 308.641 464.418C308.884 464.735 309.061 465.118 309.173 465.566L307.745 465.902C307.559 465.361 307.288 464.969 306.933 464.726C306.579 464.474 306.103 464.348 305.505 464.348C304.945 464.348 304.493 464.474 304.147 464.726C303.811 464.978 303.643 465.328 303.643 465.776C303.643 466.019 303.704 466.224 303.825 466.392C303.947 466.551 304.11 466.686 304.315 466.798C304.521 466.91 304.759 467.003 305.029 467.078C305.3 467.153 305.585 467.227 305.883 467.302C306.266 467.395 306.658 467.507 307.059 467.638C307.461 467.759 307.825 467.927 308.151 468.142C308.478 468.357 308.744 468.632 308.949 468.968C309.164 469.304 309.271 469.733 309.271 470.256C309.271 470.704 309.187 471.11 309.019 471.474C308.851 471.829 308.609 472.132 308.291 472.384C307.983 472.636 307.605 472.832 307.157 472.972C306.719 473.112 306.229 473.182 305.687 473.182Z" fill="#20232A"/>
<path d="M322.062 463.214V464.614H319.598V473H318.016V464.614H315.538V463.214H322.062Z" fill="#20232A"/>
<path d="M332.981 473.182C332.253 473.182 331.586 473.061 330.979 472.818C330.372 472.566 329.85 472.221 329.411 471.782C328.972 471.334 328.632 470.797 328.389 470.172C328.146 469.547 328.025 468.856 328.025 468.1C328.025 467.344 328.146 466.658 328.389 466.042C328.632 465.417 328.972 464.885 329.411 464.446C329.85 463.998 330.372 463.653 330.979 463.41C331.586 463.158 332.253 463.032 332.981 463.032C333.709 463.032 334.376 463.158 334.983 463.41C335.59 463.653 336.112 463.998 336.551 464.446C336.99 464.885 337.33 465.417 337.573 466.042C337.816 466.658 337.937 467.344 337.937 468.1C337.937 468.856 337.816 469.547 337.573 470.172C337.33 470.797 336.99 471.334 336.551 471.782C336.112 472.221 335.59 472.566 334.983 472.818C334.376 473.061 333.709 473.182 332.981 473.182ZM332.981 471.712C333.476 471.712 333.928 471.628 334.339 471.46C334.75 471.283 335.104 471.035 335.403 470.718C335.702 470.401 335.935 470.023 336.103 469.584C336.271 469.136 336.355 468.641 336.355 468.1C336.355 467.559 336.271 467.069 336.103 466.63C335.935 466.182 335.702 465.799 335.403 465.482C335.104 465.165 334.75 464.922 334.339 464.754C333.928 464.577 333.476 464.488 332.981 464.488C332.486 464.488 332.029 464.577 331.609 464.754C331.198 464.922 330.844 465.165 330.545 465.482C330.246 465.799 330.013 466.182 329.845 466.63C329.686 467.069 329.607 467.559 329.607 468.1C329.607 468.641 329.686 469.136 329.845 469.584C330.013 470.023 330.246 470.401 330.545 470.718C330.844 471.035 331.198 471.283 331.609 471.46C332.029 471.628 332.486 471.712 332.981 471.712Z" fill="#20232A"/>
<path d="M356.136 473H354.54L353.91 464.782L351.04 473H349.934L347.078 464.81L346.448 473H344.838L345.622 463.214H347.988L350.494 470.144L352.986 463.214H355.366L356.136 473Z" fill="#20232A"/>
<path d="M369.005 464.614H365.071V467.414H368.571V468.8H365.071V471.6H369.005V473H363.475V463.214H369.005V464.614Z" fill="#20232A"/>
<path d="M381.755 473L379.291 469.444H377.835V473H376.239V463.214H379.375C380.038 463.214 380.584 463.27 381.013 463.382C381.442 463.494 381.806 463.671 382.105 463.914C382.413 464.157 382.651 464.474 382.819 464.866C382.987 465.249 383.071 465.706 383.071 466.238C383.071 466.854 382.95 467.409 382.707 467.904C382.474 468.389 382.119 468.767 381.643 469.038C381.55 469.085 381.452 469.127 381.349 469.164C381.256 469.201 381.158 469.234 381.055 469.262L383.743 473H381.755ZM377.835 464.544V468.1H379.165C379.464 468.1 379.758 468.086 380.047 468.058C380.346 468.021 380.593 467.937 380.789 467.806C381.246 467.517 381.475 467.022 381.475 466.322C381.475 465.669 381.274 465.197 380.873 464.908C380.658 464.759 380.402 464.661 380.103 464.614C379.814 464.567 379.501 464.544 379.165 464.544H377.835Z" fill="#20232A"/>
<path d="M247.734 488.614H243.8V491.414H247.3V492.8H243.8V495.6H247.734V497H242.204V487.214H247.734V488.614Z" fill="#20232A"/>
<path d="M254.142 497L258.006 491.932L254.254 487.214H256.186L258.944 490.77L261.716 487.214H263.648L259.896 491.932L263.76 497H261.772L258.944 493.234L256.13 497H254.142Z" fill="#20232A"/>
<path d="M276.442 487.914C276.741 488.157 276.974 488.474 277.142 488.866C277.31 489.249 277.394 489.706 277.394 490.238C277.394 490.854 277.277 491.409 277.044 491.904C276.811 492.389 276.451 492.767 275.966 493.038C275.621 493.225 275.247 493.341 274.846 493.388C274.445 493.425 274.062 493.444 273.698 493.444H272.158V497H270.576V487.214H273.698C274.37 487.214 274.921 487.27 275.35 487.382C275.779 487.494 276.143 487.671 276.442 487.914ZM275.112 491.806C275.579 491.526 275.812 491.031 275.812 490.322C275.812 489.995 275.756 489.715 275.644 489.482C275.541 489.239 275.397 489.048 275.21 488.908C274.995 488.759 274.739 488.661 274.44 488.614C274.141 488.567 273.824 488.544 273.488 488.544H272.158V492.1H273.488C273.787 492.1 274.085 492.086 274.384 492.058C274.683 492.021 274.925 491.937 275.112 491.806Z" fill="#20232A"/>
<path d="M290.005 488.614H286.071V491.414H289.571V492.8H286.071V495.6H290.005V497H284.475V487.214H290.005V488.614Z" fill="#20232A"/>
<path d="M302.755 497L300.291 493.444H298.835V497H297.239V487.214H300.375C301.037 487.214 301.583 487.27 302.013 487.382C302.442 487.494 302.806 487.671 303.105 487.914C303.413 488.157 303.651 488.474 303.819 488.866C303.987 489.249 304.071 489.706 304.071 490.238C304.071 490.854 303.949 491.409 303.707 491.904C303.473 492.389 303.119 492.767 302.643 493.038C302.549 493.085 302.451 493.127 302.349 493.164C302.255 493.201 302.157 493.234 302.055 493.262L304.743 497H302.755ZM298.835 488.544V492.1H300.165C300.463 492.1 300.757 492.086 301.047 492.058C301.345 492.021 301.593 491.937 301.789 491.806C302.246 491.517 302.475 491.022 302.475 490.322C302.475 489.669 302.274 489.197 301.873 488.908C301.658 488.759 301.401 488.661 301.103 488.614C300.813 488.567 300.501 488.544 300.165 488.544H298.835Z" fill="#20232A"/>
<path d="M311.767 497V487.214H313.363V497H311.767Z" fill="#20232A"/>
<path d="M326.533 488.614H322.599V491.414H326.099V492.8H322.599V495.6H326.533V497H321.003V487.214H326.533V488.614Z" fill="#20232A"/>
<path d="M340.571 487.214H342.167V497H340.221L335.363 489.356V497H333.767V487.214H335.685L340.571 494.83V487.214Z" fill="#20232A"/>
<path d="M354.349 497.182C353.621 497.182 352.953 497.061 352.347 496.818C351.74 496.566 351.217 496.221 350.779 495.782C350.34 495.334 349.999 494.797 349.757 494.172C349.514 493.547 349.393 492.856 349.393 492.1C349.393 491.344 349.514 490.658 349.757 490.042C349.999 489.417 350.34 488.885 350.779 488.446C351.217 487.998 351.74 487.653 352.347 487.41C352.953 487.158 353.621 487.032 354.349 487.032C355.422 487.032 356.351 487.293 357.135 487.816C357.928 488.329 358.507 489.029 358.871 489.916L357.387 490.462C357.135 489.846 356.743 489.365 356.211 489.02C355.679 488.665 355.058 488.488 354.349 488.488C353.854 488.488 353.397 488.577 352.977 488.754C352.566 488.922 352.211 489.165 351.913 489.482C351.614 489.799 351.381 490.182 351.213 490.63C351.054 491.069 350.975 491.559 350.975 492.1C350.975 492.641 351.054 493.136 351.213 493.584C351.381 494.023 351.614 494.401 351.913 494.718C352.211 495.035 352.566 495.283 352.977 495.46C353.397 495.628 353.854 495.712 354.349 495.712C355.058 495.712 355.679 495.539 356.211 495.194C356.743 494.849 357.135 494.368 357.387 493.752L358.871 494.284C358.507 495.18 357.928 495.889 357.135 496.412C356.351 496.925 355.422 497.182 354.349 497.182Z" fill="#20232A"/>
<path d="M371.47 488.614H367.536V491.414H371.036V492.8H367.536V495.6H371.47V497H365.94V487.214H371.47V488.614Z" fill="#20232A"/>
<path d="M389.775 495.642H394.367V497H387.717V495.698L391.665 491.68C392.01 491.325 392.262 491.008 392.421 490.728C392.579 490.448 392.659 490.149 392.659 489.832C392.659 489.375 392.514 489.025 392.225 488.782C391.935 488.53 391.539 488.404 391.035 488.404C390.447 488.404 389.994 488.558 389.677 488.866C389.369 489.174 389.215 489.636 389.215 490.252V490.728L387.689 490.574V490.126C387.689 489.155 387.978 488.399 388.557 487.858C389.145 487.307 389.952 487.032 390.979 487.032C391.445 487.032 391.875 487.097 392.267 487.228C392.659 487.349 392.995 487.531 393.275 487.774C393.555 488.007 393.769 488.297 393.919 488.642C394.077 488.978 394.157 489.356 394.157 489.776C394.157 490.261 394.059 490.714 393.863 491.134C393.667 491.554 393.317 492.021 392.813 492.534L389.775 495.642Z" fill="#20232A"/>
<path d="M402.864 497.14C402.612 497.14 402.393 497.051 402.206 496.874C402.02 496.687 401.926 496.463 401.926 496.202C401.926 495.941 402.02 495.717 402.206 495.53C402.393 495.343 402.612 495.25 402.864 495.25C403.126 495.25 403.35 495.343 403.536 495.53C403.723 495.717 403.816 495.941 403.816 496.202C403.816 496.463 403.723 496.687 403.536 496.874C403.35 497.051 403.126 497.14 402.864 497.14Z" fill="#20232A"/>
<path d="M414.731 497.182C413.62 497.182 412.771 496.762 412.183 495.922C411.604 495.082 411.315 493.808 411.315 492.1C411.315 490.383 411.604 489.109 412.183 488.278C412.771 487.447 413.62 487.032 414.731 487.032C415.832 487.032 416.672 487.447 417.251 488.278C417.839 489.109 418.133 490.383 418.133 492.1C418.133 493.808 417.839 495.082 417.251 495.922C416.672 496.762 415.832 497.182 414.731 497.182ZM414.731 495.81C415.328 495.81 415.79 495.511 416.117 494.914C416.443 494.317 416.607 493.379 416.607 492.1C416.607 490.821 416.443 489.888 416.117 489.3C415.79 488.703 415.328 488.404 414.731 488.404C414.115 488.404 413.643 488.698 413.317 489.286C412.999 489.874 412.841 490.812 412.841 492.1C412.841 493.379 413.004 494.317 413.331 494.914C413.657 495.511 414.124 495.81 414.731 495.81Z" fill="#20232A"/>
<path d="M102.93 150.214H104.526V160H102.58L97.7219 152.356V160H96.1259V150.214H98.0439L102.93 157.83V150.214Z" fill="#20232A"/>
<path d="M117.701 151.614H113.767V154.414H117.267V155.8H113.767V158.6H117.701V160H112.171V150.214H117.701V151.614Z" fill="#20232A"/>
<path d="M136.359 150.214H138.011L135.351 160H133.209L131.095 153.014L128.981 160H126.853L124.193 150.214H125.845L128.029 158.362L130.395 150.214H131.809L134.175 158.348L136.359 150.214Z" fill="#20232A"/>
<path d="M70.2773 174.914C70.5759 175.157 70.8093 175.474 70.9773 175.866C71.1453 176.249 71.2293 176.706 71.2293 177.238C71.2293 177.854 71.1126 178.409 70.8793 178.904C70.6459 179.389 70.2866 179.767 69.8013 180.038C69.4559 180.225 69.0826 180.341 68.6813 180.388C68.2799 180.425 67.8973 180.444 67.5333 180.444H65.9933V184H64.4113V174.214H67.5333C68.2053 174.214 68.7559 174.27 69.1853 174.382C69.6146 174.494 69.9786 174.671 70.2773 174.914ZM68.9473 178.806C69.4139 178.526 69.6473 178.031 69.6473 177.322C69.6473 176.995 69.5913 176.715 69.4793 176.482C69.3766 176.239 69.2319 176.048 69.0453 175.908C68.8306 175.759 68.5739 175.661 68.2753 175.614C67.9766 175.567 67.6593 175.544 67.3233 175.544H65.9933V179.1H67.3233C67.6219 179.1 67.9206 179.086 68.2193 179.058C68.5179 179.021 68.7606 178.937 68.9473 178.806Z" fill="#20232A"/>
<path d="M83.8261 184L81.3621 180.444H79.9061V184H78.3101V174.214H81.4461C82.1087 174.214 82.6548 174.27 83.0841 174.382C83.5134 174.494 83.8774 174.671 84.1761 174.914C84.4841 175.157 84.7221 175.474 84.8901 175.866C85.0581 176.249 85.1421 176.706 85.1421 177.238C85.1421 177.854 85.0208 178.409 84.7781 178.904C84.5448 179.389 84.1901 179.767 83.7141 180.038C83.6208 180.085 83.5228 180.127 83.4201 180.164C83.3268 180.201 83.2288 180.234 83.1261 180.262L85.8141 184H83.8261ZM79.9061 175.544V179.1H81.2361C81.5347 179.1 81.8288 179.086 82.1181 179.058C82.4167 179.021 82.6641 178.937 82.8601 178.806C83.3174 178.517 83.5461 178.022 83.5461 177.322C83.5461 176.669 83.3454 176.197 82.9441 175.908C82.7294 175.759 82.4727 175.661 82.1741 175.614C81.8848 175.567 81.5721 175.544 81.2361 175.544H79.9061Z" fill="#20232A"/>
<path d="M97.2508 184.182C96.5228 184.182 95.8554 184.061 95.2488 183.818C94.6421 183.566 94.1194 183.221 93.6808 182.782C93.2421 182.334 92.9014 181.797 92.6588 181.172C92.4161 180.547 92.2948 179.856 92.2948 179.1C92.2948 178.344 92.4161 177.658 92.6588 177.042C92.9014 176.417 93.2421 175.885 93.6808 175.446C94.1194 174.998 94.6421 174.653 95.2488 174.41C95.8554 174.158 96.5228 174.032 97.2508 174.032C97.9788 174.032 98.6461 174.158 99.2528 174.41C99.8594 174.653 100.382 174.998 100.821 175.446C101.259 175.885 101.6 176.417 101.843 177.042C102.085 177.658 102.207 178.344 102.207 179.1C102.207 179.856 102.085 180.547 101.843 181.172C101.6 181.797 101.259 182.334 100.821 182.782C100.382 183.221 99.8594 183.566 99.2528 183.818C98.6461 184.061 97.9788 184.182 97.2508 184.182ZM97.2508 182.712C97.7454 182.712 98.1981 182.628 98.6088 182.46C99.0194 182.283 99.3741 182.035 99.6728 181.718C99.9714 181.401 100.205 181.023 100.373 180.584C100.541 180.136 100.625 179.641 100.625 179.1C100.625 178.559 100.541 178.069 100.373 177.63C100.205 177.182 99.9714 176.799 99.6728 176.482C99.3741 176.165 99.0194 175.922 98.6088 175.754C98.1981 175.577 97.7454 175.488 97.2508 175.488C96.7561 175.488 96.2988 175.577 95.8788 175.754C95.4681 175.922 95.1134 176.165 94.8148 176.482C94.5161 176.799 94.2828 177.182 94.1148 177.63C93.9561 178.069 93.8768 178.559 93.8768 179.1C93.8768 179.641 93.9561 180.136 94.1148 180.584C94.2828 181.023 94.5161 181.401 94.8148 181.718C95.1134 182.035 95.4681 182.283 95.8788 182.46C96.2988 182.628 96.7561 182.712 97.2508 182.712Z" fill="#20232A"/>
<path d="M109.43 184V174.214H112.16C113 174.214 113.709 174.293 114.288 174.452C114.876 174.611 115.38 174.844 115.8 175.152C116.36 175.572 116.775 176.113 117.046 176.776C117.317 177.439 117.452 178.213 117.452 179.1C117.452 179.996 117.317 180.775 117.046 181.438C116.775 182.101 116.36 182.637 115.8 183.048C115.38 183.365 114.876 183.603 114.288 183.762C113.709 183.921 113 184 112.16 184H109.43ZM111.012 182.6H112.146C113.257 182.6 114.106 182.376 114.694 181.928C115.478 181.349 115.87 180.407 115.87 179.1C115.87 177.793 115.478 176.855 114.694 176.286C114.106 175.838 113.257 175.614 112.146 175.614H111.012V182.6Z" fill="#20232A"/>
<path d="M128.392 184.182C127.85 184.182 127.346 184.107 126.88 183.958C126.422 183.799 126.021 183.571 125.676 183.272C125.34 182.973 125.074 182.6 124.878 182.152C124.691 181.704 124.598 181.181 124.598 180.584V174.214H126.194V180.388C126.194 181.181 126.399 181.774 126.81 182.166C127.22 182.549 127.748 182.74 128.392 182.74C129.026 182.74 129.549 182.549 129.96 182.166C130.38 181.774 130.59 181.181 130.59 180.388V174.214H132.172V180.584C132.172 181.181 132.074 181.704 131.878 182.152C131.691 182.6 131.43 182.973 131.094 183.272C130.758 183.571 130.356 183.799 129.89 183.958C129.432 184.107 128.933 184.182 128.392 184.182Z" fill="#20232A"/>
<path d="M144.238 184.182C143.51 184.182 142.843 184.061 142.236 183.818C141.63 183.566 141.107 183.221 140.668 182.782C140.23 182.334 139.889 181.797 139.646 181.172C139.404 180.547 139.282 179.856 139.282 179.1C139.282 178.344 139.404 177.658 139.646 177.042C139.889 176.417 140.23 175.885 140.668 175.446C141.107 174.998 141.63 174.653 142.236 174.41C142.843 174.158 143.51 174.032 144.238 174.032C145.312 174.032 146.24 174.293 147.024 174.816C147.818 175.329 148.396 176.029 148.76 176.916L147.276 177.462C147.024 176.846 146.632 176.365 146.1 176.02C145.568 175.665 144.948 175.488 144.238 175.488C143.744 175.488 143.286 175.577 142.866 175.754C142.456 175.922 142.101 176.165 141.802 176.482C141.504 176.799 141.27 177.182 141.102 177.63C140.944 178.069 140.864 178.559 140.864 179.1C140.864 179.641 140.944 180.136 141.102 180.584C141.27 181.023 141.504 181.401 141.802 181.718C142.101 182.035 142.456 182.283 142.866 182.46C143.286 182.628 143.744 182.712 144.238 182.712C144.948 182.712 145.568 182.539 146.1 182.194C146.632 181.849 147.024 181.368 147.276 180.752L148.76 181.284C148.396 182.18 147.818 182.889 147.024 183.412C146.24 183.925 145.312 184.182 144.238 184.182Z" fill="#20232A"/>
<path d="M161.405 174.214V175.614H158.941V184H157.359V175.614H154.881V174.214H161.405Z" fill="#20232A"/>
<path d="M171.405 184.182C170.892 184.182 170.406 184.121 169.949 184C169.501 183.879 169.104 183.701 168.759 183.468C168.414 183.225 168.124 182.931 167.891 182.586C167.667 182.241 167.513 181.844 167.429 181.396L168.997 181.06C169.156 181.676 169.44 182.133 169.851 182.432C170.271 182.721 170.794 182.866 171.419 182.866C172.035 182.866 172.506 182.735 172.833 182.474C173.169 182.213 173.337 181.844 173.337 181.368C173.337 181.097 173.272 180.878 173.141 180.71C173.02 180.533 172.847 180.383 172.623 180.262C172.408 180.141 172.156 180.038 171.867 179.954C171.587 179.87 171.293 179.786 170.985 179.702C170.612 179.599 170.234 179.487 169.851 179.366C169.468 179.235 169.118 179.067 168.801 178.862C168.493 178.647 168.241 178.381 168.045 178.064C167.849 177.747 167.751 177.345 167.751 176.86C167.751 176.431 167.83 176.043 167.989 175.698C168.157 175.353 168.39 175.059 168.689 174.816C168.988 174.564 169.342 174.373 169.753 174.242C170.173 174.102 170.635 174.032 171.139 174.032C171.578 174.032 171.998 174.079 172.399 174.172C172.81 174.265 173.178 174.415 173.505 174.62C173.841 174.825 174.126 175.091 174.359 175.418C174.602 175.735 174.779 176.118 174.891 176.566L173.463 176.902C173.276 176.361 173.006 175.969 172.651 175.726C172.296 175.474 171.82 175.348 171.223 175.348C170.663 175.348 170.21 175.474 169.865 175.726C169.529 175.978 169.361 176.328 169.361 176.776C169.361 177.019 169.422 177.224 169.543 177.392C169.664 177.551 169.828 177.686 170.033 177.798C170.238 177.91 170.476 178.003 170.747 178.078C171.018 178.153 171.302 178.227 171.601 178.302C171.984 178.395 172.376 178.507 172.777 178.638C173.178 178.759 173.542 178.927 173.869 179.142C174.196 179.357 174.462 179.632 174.667 179.968C174.882 180.304 174.989 180.733 174.989 181.256C174.989 181.704 174.905 182.11 174.737 182.474C174.569 182.829 174.326 183.132 174.009 183.384C173.701 183.636 173.323 183.832 172.875 183.972C172.436 184.112 171.946 184.182 171.405 184.182Z" fill="#20232A"/>
<path d="M310.94 264.182C310.212 264.182 309.545 264.061 308.938 263.818C308.332 263.566 307.809 263.221 307.37 262.782C306.932 262.334 306.591 261.797 306.348 261.172C306.106 260.547 305.984 259.856 305.984 259.1C305.984 258.344 306.106 257.658 306.348 257.042C306.591 256.417 306.932 255.885 307.37 255.446C307.809 254.998 308.332 254.653 308.938 254.41C309.545 254.158 310.212 254.032 310.94 254.032C311.668 254.032 312.336 254.158 312.942 254.41C313.549 254.653 314.072 254.998 314.51 255.446C314.949 255.885 315.29 256.417 315.532 257.042C315.775 257.658 315.896 258.344 315.896 259.1C315.896 259.856 315.775 260.547 315.532 261.172C315.29 261.797 314.949 262.334 314.51 262.782C314.072 263.221 313.549 263.566 312.942 263.818C312.336 264.061 311.668 264.182 310.94 264.182ZM310.94 262.712C311.435 262.712 311.888 262.628 312.298 262.46C312.709 262.283 313.064 262.035 313.362 261.718C313.661 261.401 313.894 261.023 314.062 260.584C314.23 260.136 314.314 259.641 314.314 259.1C314.314 258.559 314.23 258.069 314.062 257.63C313.894 257.182 313.661 256.799 313.362 256.482C313.064 256.165 312.709 255.922 312.298 255.754C311.888 255.577 311.435 255.488 310.94 255.488C310.446 255.488 309.988 255.577 309.568 255.754C309.158 255.922 308.803 256.165 308.504 256.482C308.206 256.799 307.972 257.182 307.804 257.63C307.646 258.069 307.566 258.559 307.566 259.1C307.566 259.641 307.646 260.136 307.804 260.584C307.972 261.023 308.206 261.401 308.504 261.718C308.803 262.035 309.158 262.283 309.568 262.46C309.988 262.628 310.446 262.712 310.94 262.712Z" fill="#20232A"/>
<path d="M326.801 264.182C326.26 264.182 325.756 264.107 325.289 263.958C324.832 263.799 324.431 263.571 324.085 263.272C323.749 262.973 323.483 262.6 323.287 262.152C323.101 261.704 323.007 261.181 323.007 260.584V254.214H324.603V260.388C324.603 261.181 324.809 261.774 325.219 262.166C325.63 262.549 326.157 262.74 326.801 262.74C327.436 262.74 327.959 262.549 328.369 262.166C328.789 261.774 328.999 261.181 328.999 260.388V254.214H330.581V260.584C330.581 261.181 330.483 261.704 330.287 262.152C330.101 262.6 329.839 262.973 329.503 263.272C329.167 263.571 328.766 263.799 328.299 263.958C327.842 264.107 327.343 264.182 326.801 264.182Z" fill="#20232A"/>
<path d="M343.628 264L341.164 260.444H339.708V264H338.112V254.214H341.248C341.911 254.214 342.457 254.27 342.886 254.382C343.315 254.494 343.679 254.671 343.978 254.914C344.286 255.157 344.524 255.474 344.692 255.866C344.86 256.249 344.944 256.706 344.944 257.238C344.944 257.854 344.823 258.409 344.58 258.904C344.347 259.389 343.992 259.767 343.516 260.038C343.423 260.085 343.325 260.127 343.222 260.164C343.129 260.201 343.031 260.234 342.928 260.262L345.616 264H343.628ZM339.708 255.544V259.1H341.038C341.337 259.1 341.631 259.086 341.92 259.058C342.219 259.021 342.466 258.937 342.662 258.806C343.119 258.517 343.348 258.022 343.348 257.322C343.348 256.669 343.147 256.197 342.746 255.908C342.531 255.759 342.275 255.661 341.976 255.614C341.687 255.567 341.374 255.544 341.038 255.544H339.708Z" fill="#20232A"/>
<path d="M281.295 288.182C280.782 288.182 280.296 288.121 279.839 288C279.391 287.879 278.994 287.701 278.649 287.468C278.304 287.225 278.014 286.931 277.781 286.586C277.557 286.241 277.403 285.844 277.319 285.396L278.887 285.06C279.046 285.676 279.33 286.133 279.741 286.432C280.161 286.721 280.684 286.866 281.309 286.866C281.925 286.866 282.396 286.735 282.723 286.474C283.059 286.213 283.227 285.844 283.227 285.368C283.227 285.097 283.162 284.878 283.031 284.71C282.91 284.533 282.737 284.383 282.513 284.262C282.298 284.141 282.046 284.038 281.757 283.954C281.477 283.87 281.183 283.786 280.875 283.702C280.502 283.599 280.124 283.487 279.741 283.366C279.358 283.235 279.008 283.067 278.691 282.862C278.383 282.647 278.131 282.381 277.935 282.064C277.739 281.747 277.641 281.345 277.641 280.86C277.641 280.431 277.72 280.043 277.879 279.698C278.047 279.353 278.28 279.059 278.579 278.816C278.878 278.564 279.232 278.373 279.643 278.242C280.063 278.102 280.525 278.032 281.029 278.032C281.468 278.032 281.888 278.079 282.289 278.172C282.7 278.265 283.068 278.415 283.395 278.62C283.731 278.825 284.016 279.091 284.249 279.418C284.492 279.735 284.669 280.118 284.781 280.566L283.353 280.902C283.166 280.361 282.896 279.969 282.541 279.726C282.186 279.474 281.71 279.348 281.113 279.348C280.553 279.348 280.1 279.474 279.755 279.726C279.419 279.978 279.251 280.328 279.251 280.776C279.251 281.019 279.312 281.224 279.433 281.392C279.554 281.551 279.718 281.686 279.923 281.798C280.128 281.91 280.366 282.003 280.637 282.078C280.908 282.153 281.192 282.227 281.491 282.302C281.874 282.395 282.266 282.507 282.667 282.638C283.068 282.759 283.432 282.927 283.759 283.142C284.086 283.357 284.352 283.632 284.557 283.968C284.772 284.304 284.879 284.733 284.879 285.256C284.879 285.704 284.795 286.11 284.627 286.474C284.459 286.829 284.216 287.132 283.899 287.384C283.591 287.636 283.213 287.832 282.765 287.972C282.326 288.112 281.836 288.182 281.295 288.182Z" fill="#20232A"/>
<path d="M297.653 279.614H293.719V282.414H297.219V283.8H293.719V286.6H297.653V288H292.123V278.214H297.653V279.614Z" fill="#20232A"/>
<path d="M310.403 288L307.939 284.444H306.483V288H304.887V278.214H308.023C308.685 278.214 309.231 278.27 309.661 278.382C310.09 278.494 310.454 278.671 310.753 278.914C311.061 279.157 311.299 279.474 311.467 279.866C311.635 280.249 311.719 280.706 311.719 281.238C311.719 281.854 311.597 282.409 311.355 282.904C311.121 283.389 310.767 283.767 310.291 284.038C310.197 284.085 310.099 284.127 309.997 284.164C309.903 284.201 309.805 284.234 309.703 284.262L312.391 288H310.403ZM306.483 279.544V283.1H307.813C308.111 283.1 308.405 283.086 308.695 283.058C308.993 283.021 309.241 282.937 309.437 282.806C309.894 282.517 310.123 282.022 310.123 281.322C310.123 280.669 309.922 280.197 309.521 279.908C309.306 279.759 309.049 279.661 308.751 279.614C308.461 279.567 308.149 279.544 307.813 279.544H306.483Z" fill="#20232A"/>
<path d="M325.988 278.214H327.682L323.972 288H321.984L318.274 278.214H319.968L322.978 286.39L325.988 278.214Z" fill="#20232A"/>
<path d="M334.503 288V278.214H336.099V288H334.503Z" fill="#20232A"/>
<path d="M348.275 288.182C347.547 288.182 346.88 288.061 346.273 287.818C345.667 287.566 345.144 287.221 344.705 286.782C344.267 286.334 343.926 285.797 343.683 285.172C343.441 284.547 343.319 283.856 343.319 283.1C343.319 282.344 343.441 281.658 343.683 281.042C343.926 280.417 344.267 279.885 344.705 279.446C345.144 278.998 345.667 278.653 346.273 278.41C346.88 278.158 347.547 278.032 348.275 278.032C349.349 278.032 350.277 278.293 351.061 278.816C351.855 279.329 352.433 280.029 352.797 280.916L351.313 281.462C351.061 280.846 350.669 280.365 350.137 280.02C349.605 279.665 348.985 279.488 348.275 279.488C347.781 279.488 347.323 279.577 346.903 279.754C346.493 279.922 346.138 280.165 345.839 280.482C345.541 280.799 345.307 281.182 345.139 281.63C344.981 282.069 344.901 282.559 344.901 283.1C344.901 283.641 344.981 284.136 345.139 284.584C345.307 285.023 345.541 285.401 345.839 285.718C346.138 286.035 346.493 286.283 346.903 286.46C347.323 286.628 347.781 286.712 348.275 286.712C348.985 286.712 349.605 286.539 350.137 286.194C350.669 285.849 351.061 285.368 351.313 284.752L352.797 285.284C352.433 286.18 351.855 286.889 351.061 287.412C350.277 287.925 349.349 288.182 348.275 288.182Z" fill="#20232A"/>
<path d="M365.397 279.614H361.463V282.414H364.963V283.8H361.463V286.6H365.397V288H359.867V278.214H365.397V279.614Z" fill="#20232A"/>
<path d="M375.811 288.182C375.298 288.182 374.813 288.121 374.355 288C373.907 287.879 373.511 287.701 373.165 287.468C372.82 287.225 372.531 286.931 372.297 286.586C372.073 286.241 371.919 285.844 371.835 285.396L373.403 285.06C373.562 285.676 373.847 286.133 374.257 286.432C374.677 286.721 375.2 286.866 375.825 286.866C376.441 286.866 376.913 286.735 377.239 286.474C377.575 286.213 377.743 285.844 377.743 285.368C377.743 285.097 377.678 284.878 377.547 284.71C377.426 284.533 377.253 284.383 377.029 284.262C376.815 284.141 376.563 284.038 376.273 283.954C375.993 283.87 375.699 283.786 375.391 283.702C375.018 283.599 374.64 283.487 374.257 283.366C373.875 283.235 373.525 283.067 373.207 282.862C372.899 282.647 372.647 282.381 372.451 282.064C372.255 281.747 372.157 281.345 372.157 280.86C372.157 280.431 372.237 280.043 372.395 279.698C372.563 279.353 372.797 279.059 373.095 278.816C373.394 278.564 373.749 278.373 374.159 278.242C374.579 278.102 375.041 278.032 375.545 278.032C375.984 278.032 376.404 278.079 376.805 278.172C377.216 278.265 377.585 278.415 377.911 278.62C378.247 278.825 378.532 279.091 378.765 279.418C379.008 279.735 379.185 280.118 379.297 280.566L377.869 280.902C377.683 280.361 377.412 279.969 377.057 279.726C376.703 279.474 376.227 279.348 375.629 279.348C375.069 279.348 374.617 279.474 374.271 279.726C373.935 279.978 373.767 280.328 373.767 280.776C373.767 281.019 373.828 281.224 373.949 281.392C374.071 281.551 374.234 281.686 374.439 281.798C374.645 281.91 374.883 282.003 375.153 282.078C375.424 282.153 375.709 282.227 376.007 282.302C376.39 282.395 376.782 282.507 377.183 282.638C377.585 282.759 377.949 282.927 378.275 283.142C378.602 283.357 378.868 283.632 379.073 283.968C379.288 284.304 379.395 284.733 379.395 285.256C379.395 285.704 379.311 286.11 379.143 286.474C378.975 286.829 378.733 287.132 378.415 287.384C378.107 287.636 377.729 287.832 377.281 287.972C376.843 288.112 376.353 288.182 375.811 288.182Z" fill="#20232A"/>
<path d="M492.582 139.614H488.648V142.414H492.148V143.8H488.648V146.6H492.582V148H487.052V138.214H492.582V139.614Z" fill="#20232A"/>
<path d="M498.99 148L502.854 142.932L499.102 138.214H501.034L503.792 141.77L506.564 138.214H508.496L504.744 142.932L508.608 148H506.62L503.792 144.234L500.978 148H498.99Z" fill="#20232A"/>
<path d="M515.424 148V138.214H517.02V148H515.424Z" fill="#20232A"/>
<path d="M527.95 148.182C527.437 148.182 526.952 148.121 526.494 148C526.046 147.879 525.65 147.701 525.304 147.468C524.959 147.225 524.67 146.931 524.436 146.586C524.212 146.241 524.058 145.844 523.974 145.396L525.542 145.06C525.701 145.676 525.986 146.133 526.396 146.432C526.816 146.721 527.339 146.866 527.964 146.866C528.58 146.866 529.052 146.735 529.378 146.474C529.714 146.213 529.882 145.844 529.882 145.368C529.882 145.097 529.817 144.878 529.686 144.71C529.565 144.533 529.392 144.383 529.168 144.262C528.954 144.141 528.702 144.038 528.412 143.954C528.132 143.87 527.838 143.786 527.53 143.702C527.157 143.599 526.779 143.487 526.396 143.366C526.014 143.235 525.664 143.067 525.346 142.862C525.038 142.647 524.786 142.381 524.59 142.064C524.394 141.747 524.296 141.345 524.296 140.86C524.296 140.431 524.376 140.043 524.534 139.698C524.702 139.353 524.936 139.059 525.234 138.816C525.533 138.564 525.888 138.373 526.298 138.242C526.718 138.102 527.18 138.032 527.684 138.032C528.123 138.032 528.543 138.079 528.944 138.172C529.355 138.265 529.724 138.415 530.05 138.62C530.386 138.825 530.671 139.091 530.904 139.418C531.147 139.735 531.324 140.118 531.436 140.566L530.008 140.902C529.822 140.361 529.551 139.969 529.196 139.726C528.842 139.474 528.366 139.348 527.768 139.348C527.208 139.348 526.756 139.474 526.41 139.726C526.074 139.978 525.906 140.328 525.906 140.776C525.906 141.019 525.967 141.224 526.088 141.392C526.21 141.551 526.373 141.686 526.578 141.798C526.784 141.91 527.022 142.003 527.292 142.078C527.563 142.153 527.848 142.227 528.146 142.302C528.529 142.395 528.921 142.507 529.322 142.638C529.724 142.759 530.088 142.927 530.414 143.142C530.741 143.357 531.007 143.632 531.212 143.968C531.427 144.304 531.534 144.733 531.534 145.256C531.534 145.704 531.45 146.11 531.282 146.474C531.114 146.829 530.872 147.132 530.554 147.384C530.246 147.636 529.868 147.832 529.42 147.972C528.982 148.112 528.492 148.182 527.95 148.182Z" fill="#20232A"/>
<path d="M544.325 138.214V139.614H541.861V148H540.279V139.614H537.801V138.214H544.325Z" fill="#20232A"/>
<path d="M551.145 148V138.214H552.741V148H551.145Z" fill="#20232A"/>
<path d="M567.186 138.214H568.782V148H566.836L561.978 140.356V148H560.382V138.214H562.3L567.186 145.83V138.214Z" fill="#20232A"/>
<path d="M580.879 148.182C580.161 148.182 579.503 148.061 578.905 147.818C578.308 147.566 577.795 147.221 577.365 146.782C576.936 146.334 576.6 145.797 576.357 145.172C576.124 144.547 576.007 143.856 576.007 143.1C576.007 142.344 576.129 141.658 576.371 141.042C576.614 140.417 576.955 139.885 577.393 139.446C577.832 138.998 578.355 138.653 578.961 138.41C579.568 138.158 580.235 138.032 580.963 138.032C581.925 138.032 582.774 138.242 583.511 138.662C584.249 139.082 584.827 139.661 585.247 140.398L583.861 141.14C583.581 140.617 583.189 140.211 582.685 139.922C582.181 139.633 581.607 139.488 580.963 139.488C580.469 139.488 580.011 139.577 579.591 139.754C579.181 139.922 578.826 140.165 578.527 140.482C578.229 140.799 577.995 141.182 577.827 141.63C577.669 142.069 577.589 142.559 577.589 143.1C577.589 143.641 577.669 144.136 577.827 144.584C577.986 145.023 578.21 145.401 578.499 145.718C578.798 146.035 579.153 146.283 579.563 146.46C579.983 146.628 580.45 146.712 580.963 146.712C581.766 146.712 582.438 146.488 582.979 146.04C583.53 145.583 583.885 144.929 584.043 144.08H581.019V142.792H585.597V148H584.337V146.18C584.039 146.787 583.6 147.272 583.021 147.636C582.452 148 581.738 148.182 580.879 148.182Z" fill="#20232A"/>
<path d="M484.718 163.614H480.7V166.414H484.2V167.8H480.7V172H479.104V162.214H484.718V163.614Z" fill="#20232A"/>
<path d="M491.732 172V162.214H493.328V172H491.732Z" fill="#20232A"/>
<path d="M507.772 162.214H509.368V172H507.422L502.564 164.356V172H500.968V162.214H502.886L507.772 169.83V162.214Z" fill="#20232A"/>
<path d="M523.888 172L523.076 169.788H518.68L517.868 172H516.174L519.884 162.214H521.872L525.582 172H523.888ZM519.17 168.458H522.586L520.878 163.824L519.17 168.458Z" fill="#20232A"/>
<path d="M539.193 162.214H540.789V172H538.843L533.985 164.356V172H532.389V162.214H534.307L539.193 169.83V162.214Z" fill="#20232A"/>
<path d="M552.97 172.182C552.242 172.182 551.575 172.061 550.968 171.818C550.362 171.566 549.839 171.221 549.4 170.782C548.962 170.334 548.621 169.797 548.378 169.172C548.136 168.547 548.014 167.856 548.014 167.1C548.014 166.344 548.136 165.658 548.378 165.042C548.621 164.417 548.962 163.885 549.4 163.446C549.839 162.998 550.362 162.653 550.968 162.41C551.575 162.158 552.242 162.032 552.97 162.032C554.044 162.032 554.972 162.293 555.756 162.816C556.55 163.329 557.128 164.029 557.492 164.916L556.008 165.462C555.756 164.846 555.364 164.365 554.832 164.02C554.3 163.665 553.68 163.488 552.97 163.488C552.476 163.488 552.018 163.577 551.598 163.754C551.188 163.922 550.833 164.165 550.534 164.482C550.236 164.799 550.002 165.182 549.834 165.63C549.676 166.069 549.596 166.559 549.596 167.1C549.596 167.641 549.676 168.136 549.834 168.584C550.002 169.023 550.236 169.401 550.534 169.718C550.833 170.035 551.188 170.283 551.598 170.46C552.018 170.628 552.476 170.712 552.97 170.712C553.68 170.712 554.3 170.539 554.832 170.194C555.364 169.849 555.756 169.368 556.008 168.752L557.492 169.284C557.128 170.18 556.55 170.889 555.756 171.412C554.972 171.925 554.044 172.182 552.97 172.182Z" fill="#20232A"/>
<path d="M564.562 172V162.214H566.158V172H564.562Z" fill="#20232A"/>
<path d="M580.672 172L579.86 169.788H575.464L574.652 172H572.958L576.668 162.214H578.656L582.366 172H580.672ZM575.954 168.458H579.37L577.662 163.824L575.954 168.458Z" fill="#20232A"/>
<path d="M589.174 172V162.214H590.77V170.6H594.116V172H589.174Z" fill="#20232A"/>
<path d="M489.777 186.914C490.076 187.157 490.309 187.474 490.477 187.866C490.645 188.249 490.729 188.706 490.729 189.238C490.729 189.854 490.613 190.409 490.379 190.904C490.146 191.389 489.787 191.767 489.301 192.038C488.956 192.225 488.583 192.341 488.181 192.388C487.78 192.425 487.397 192.444 487.033 192.444H485.493V196H483.911V186.214H487.033C487.705 186.214 488.256 186.27 488.685 186.382C489.115 186.494 489.479 186.671 489.777 186.914ZM488.447 190.806C488.914 190.526 489.147 190.031 489.147 189.322C489.147 188.995 489.091 188.715 488.979 188.482C488.877 188.239 488.732 188.048 488.545 187.908C488.331 187.759 488.074 187.661 487.775 187.614C487.477 187.567 487.159 187.544 486.823 187.544H485.493V191.1H486.823C487.122 191.1 487.421 191.086 487.719 191.058C488.018 191.021 488.261 190.937 488.447 190.806Z" fill="#20232A"/>
<path d="M503.326 196L500.862 192.444H499.406V196H497.81V186.214H500.946C501.609 186.214 502.155 186.27 502.584 186.382C503.013 186.494 503.377 186.671 503.676 186.914C503.984 187.157 504.222 187.474 504.39 187.866C504.558 188.249 504.642 188.706 504.642 189.238C504.642 189.854 504.521 190.409 504.278 190.904C504.045 191.389 503.69 191.767 503.214 192.038C503.121 192.085 503.023 192.127 502.92 192.164C502.827 192.201 502.729 192.234 502.626 192.262L505.314 196H503.326ZM499.406 187.544V191.1H500.736C501.035 191.1 501.329 191.086 501.618 191.058C501.917 191.021 502.164 190.937 502.36 190.806C502.817 190.517 503.046 190.022 503.046 189.322C503.046 188.669 502.845 188.197 502.444 187.908C502.229 187.759 501.973 187.661 501.674 187.614C501.385 187.567 501.072 187.544 500.736 187.544H499.406Z" fill="#20232A"/>
<path d="M516.751 196.182C516.023 196.182 515.355 196.061 514.749 195.818C514.142 195.566 513.619 195.221 513.181 194.782C512.742 194.334 512.401 193.797 512.159 193.172C511.916 192.547 511.795 191.856 511.795 191.1C511.795 190.344 511.916 189.658 512.159 189.042C512.401 188.417 512.742 187.885 513.181 187.446C513.619 186.998 514.142 186.653 514.749 186.41C515.355 186.158 516.023 186.032 516.751 186.032C517.479 186.032 518.146 186.158 518.753 186.41C519.359 186.653 519.882 186.998 520.321 187.446C520.759 187.885 521.1 188.417 521.343 189.042C521.585 189.658 521.707 190.344 521.707 191.1C521.707 191.856 521.585 192.547 521.343 193.172C521.1 193.797 520.759 194.334 520.321 194.782C519.882 195.221 519.359 195.566 518.753 195.818C518.146 196.061 517.479 196.182 516.751 196.182ZM516.751 194.712C517.245 194.712 517.698 194.628 518.109 194.46C518.519 194.283 518.874 194.035 519.173 193.718C519.471 193.401 519.705 193.023 519.873 192.584C520.041 192.136 520.125 191.641 520.125 191.1C520.125 190.559 520.041 190.069 519.873 189.63C519.705 189.182 519.471 188.799 519.173 188.482C518.874 188.165 518.519 187.922 518.109 187.754C517.698 187.577 517.245 187.488 516.751 187.488C516.256 187.488 515.799 187.577 515.379 187.754C514.968 187.922 514.613 188.165 514.315 188.482C514.016 188.799 513.783 189.182 513.615 189.63C513.456 190.069 513.377 190.559 513.377 191.1C513.377 191.641 513.456 192.136 513.615 192.584C513.783 193.023 514.016 193.401 514.315 193.718C514.613 194.035 514.968 194.283 515.379 194.46C515.799 194.628 516.256 194.712 516.751 194.712Z" fill="#20232A"/>
<path d="M528.93 196V186.214H531.66C532.5 186.214 533.209 186.293 533.788 186.452C534.376 186.611 534.88 186.844 535.3 187.152C535.86 187.572 536.275 188.113 536.546 188.776C536.817 189.439 536.952 190.213 536.952 191.1C536.952 191.996 536.817 192.775 536.546 193.438C536.275 194.101 535.86 194.637 535.3 195.048C534.88 195.365 534.376 195.603 533.788 195.762C533.209 195.921 532.5 196 531.66 196H528.93ZM530.512 194.6H531.646C532.757 194.6 533.606 194.376 534.194 193.928C534.978 193.349 535.37 192.407 535.37 191.1C535.37 189.793 534.978 188.855 534.194 188.286C533.606 187.838 532.757 187.614 531.646 187.614H530.512V194.6Z" fill="#20232A"/>
<path d="M547.892 196.182C547.35 196.182 546.846 196.107 546.38 195.958C545.922 195.799 545.521 195.571 545.176 195.272C544.84 194.973 544.574 194.6 544.378 194.152C544.191 193.704 544.098 193.181 544.098 192.584V186.214H545.694V192.388C545.694 193.181 545.899 193.774 546.31 194.166C546.72 194.549 547.248 194.74 547.892 194.74C548.526 194.74 549.049 194.549 549.46 194.166C549.88 193.774 550.09 193.181 550.09 192.388V186.214H551.672V192.584C551.672 193.181 551.574 193.704 551.378 194.152C551.191 194.6 550.93 194.973 550.594 195.272C550.258 195.571 549.856 195.799 549.39 195.958C548.932 196.107 548.433 196.182 547.892 196.182Z" fill="#20232A"/>
<path d="M563.738 196.182C563.01 196.182 562.343 196.061 561.736 195.818C561.13 195.566 560.607 195.221 560.168 194.782C559.73 194.334 559.389 193.797 559.146 193.172C558.904 192.547 558.782 191.856 558.782 191.1C558.782 190.344 558.904 189.658 559.146 189.042C559.389 188.417 559.73 187.885 560.168 187.446C560.607 186.998 561.13 186.653 561.736 186.41C562.343 186.158 563.01 186.032 563.738 186.032C564.812 186.032 565.74 186.293 566.524 186.816C567.318 187.329 567.896 188.029 568.26 188.916L566.776 189.462C566.524 188.846 566.132 188.365 565.6 188.02C565.068 187.665 564.448 187.488 563.738 187.488C563.244 187.488 562.786 187.577 562.366 187.754C561.956 187.922 561.601 188.165 561.302 188.482C561.004 188.799 560.77 189.182 560.602 189.63C560.444 190.069 560.364 190.559 560.364 191.1C560.364 191.641 560.444 192.136 560.602 192.584C560.77 193.023 561.004 193.401 561.302 193.718C561.601 194.035 561.956 194.283 562.366 194.46C562.786 194.628 563.244 194.712 563.738 194.712C564.448 194.712 565.068 194.539 565.6 194.194C566.132 193.849 566.524 193.368 566.776 192.752L568.26 193.284C567.896 194.18 567.318 194.889 566.524 195.412C565.74 195.925 564.812 196.182 563.738 196.182Z" fill="#20232A"/>
<path d="M580.905 186.214V187.614H578.441V196H576.859V187.614H574.381V186.214H580.905Z" fill="#20232A"/>
<path d="M590.905 196.182C590.392 196.182 589.907 196.121 589.449 196C589.001 195.879 588.604 195.701 588.259 195.468C587.914 195.225 587.624 194.931 587.391 194.586C587.167 194.241 587.013 193.844 586.929 193.396L588.497 193.06C588.656 193.676 588.94 194.133 589.351 194.432C589.771 194.721 590.294 194.866 590.919 194.866C591.535 194.866 592.007 194.735 592.333 194.474C592.669 194.213 592.837 193.844 592.837 193.368C592.837 193.097 592.772 192.878 592.641 192.71C592.52 192.533 592.347 192.383 592.123 192.262C591.908 192.141 591.656 192.038 591.367 191.954C591.087 191.87 590.793 191.786 590.485 191.702C590.112 191.599 589.734 191.487 589.351 191.366C588.968 191.235 588.618 191.067 588.301 190.862C587.993 190.647 587.741 190.381 587.545 190.064C587.349 189.747 587.251 189.345 587.251 188.86C587.251 188.431 587.33 188.043 587.489 187.698C587.657 187.353 587.89 187.059 588.189 186.816C588.488 186.564 588.842 186.373 589.253 186.242C589.673 186.102 590.135 186.032 590.639 186.032C591.078 186.032 591.498 186.079 591.899 186.172C592.31 186.265 592.678 186.415 593.005 186.62C593.341 186.825 593.626 187.091 593.859 187.418C594.102 187.735 594.279 188.118 594.391 188.566L592.963 188.902C592.776 188.361 592.506 187.969 592.151 187.726C591.796 187.474 591.321 187.348 590.723 187.348C590.163 187.348 589.711 187.474 589.365 187.726C589.029 187.978 588.861 188.328 588.861 188.776C588.861 189.019 588.922 189.224 589.043 189.392C589.164 189.551 589.328 189.686 589.533 189.798C589.738 189.91 589.977 190.003 590.247 190.078C590.518 190.153 590.802 190.227 591.101 190.302C591.484 190.395 591.876 190.507 592.277 190.638C592.679 190.759 593.042 190.927 593.369 191.142C593.696 191.357 593.962 191.632 594.167 191.968C594.382 192.304 594.489 192.733 594.489 193.256C594.489 193.704 594.405 194.11 594.237 194.474C594.069 194.829 593.826 195.132 593.509 195.384C593.201 195.636 592.823 195.832 592.375 195.972C591.936 196.112 591.446 196.182 590.905 196.182Z" fill="#20232A"/>
</svg>
